<svg width="147" height="24" viewBox="0 0 147 24" fill="none" xmlns="http://www.w3.org/2000/svg">
<g clip-path="url(#clip0_858_821)">
<path d="M44.6756 9.71875H40.9316L39.6836 11.9509L40.9316 14.183H44.6756L45.9236 11.9509L44.6756 9.71875Z" fill="#DAAE12"/>
<path d="M146.594 23.4455H142.573L141.377 20.8018H127.105L125.905 23.4455H122.09L132.366 0.789062H136.387L146.594 23.4455ZM134.187 4.70533C134.004 5.22321 133.798 5.75205 133.569 6.2915C133.362 6.83088 133.156 7.34877 132.95 7.84501C132.744 8.31963 132.561 8.75111 132.4 9.13946L128.477 17.7809H140.011L136.043 9.01025C135.929 8.75131 135.768 8.3736 135.562 7.87732C135.379 7.35947 135.173 6.80915 134.943 6.22657C134.714 5.64399 134.497 5.09367 134.29 4.57579C134.282 4.55299 134.273 4.53042 134.264 4.50801C134.239 4.57297 134.214 4.63897 134.187 4.70533Z" fill="#28492D"/>
<path d="M103.343 12.7041L112.274 0.800781H115.775V23.1224H112.068V13.843C112.068 13.524 112.07 13.2097 112.073 12.9002V6.8188L104.414 16.7129H102.149L94.5954 6.81578V13.1902C94.5967 13.4051 94.5976 13.6227 94.5976 13.843V23.1224H90.8906V0.800781H94.5289L103.343 12.7041Z" fill="#28492D"/>
<path d="M63.0352 23.0789V0.789062H74.6985C76.0853 0.789062 77.3586 1.09687 78.5181 1.7125C79.6775 2.32812 80.5983 3.16664 81.2803 4.22805C81.9624 5.28947 82.3036 6.47828 82.3036 7.79442C82.3036 9.04689 81.9397 10.2039 81.2122 11.2653C80.5075 12.3267 79.5527 13.1758 78.3475 13.8127C77.1653 14.4495 75.858 14.7679 74.4258 14.7679H66.7185V23.0789H63.0352ZM78.9274 23.0789L72.0384 13.0166L75.892 12.2205L83.4631 23.1107L78.9274 23.0789ZM66.7185 11.4563H74.4939C75.2443 11.4563 75.915 11.2971 76.506 10.9787C77.1199 10.639 77.5973 10.1933 77.9385 9.64128C78.3021 9.06814 78.484 8.4419 78.484 7.76257C78.484 7.06206 78.2794 6.43582 77.8701 5.88389C77.4838 5.33192 76.938 4.89674 76.2332 4.57832C75.5512 4.2599 74.7783 4.10069 73.9143 4.10069H66.7185V11.4563Z" fill="#28492D"/>
<path d="M42.8084 7.59739e-06C44.4897 -0.0012566 46.2304 0.248714 47.8808 0.870486C49.3572 1.41166 50.7887 2.24658 51.9748 3.36814L52.1937 3.56883C53.2753 4.59006 54.1568 5.86132 54.7322 7.22776L54.7134 7.18446C55.4091 8.69442 55.7185 10.361 55.7142 11.9563C55.7188 13.5671 55.4026 15.2396 54.7192 16.755L54.6057 17.0082C53.9804 18.3542 53.0694 19.579 51.993 20.5678C50.7913 21.6814 49.3549 22.5011 47.8812 23.0421C47.4589 23.2009 47.0292 23.3364 46.5962 23.4492C46.1914 23.5547 45.7841 23.6407 45.3758 23.7084C44.5173 23.8508 43.6572 23.9126 42.8084 23.9126C41.9522 23.9126 41.0853 23.8495 40.2216 23.7068C39.8224 23.6409 39.4238 23.558 39.0284 23.4571C38.5805 23.343 38.1365 23.2055 37.7 23.0446L37.689 23.0405C36.2165 22.4896 34.7989 21.6648 33.6002 20.5846L33.5811 20.5675C32.4335 19.5133 31.4736 18.1898 30.8475 16.7373L30.8421 16.7247C30.1923 15.2067 29.8989 13.5521 29.9024 11.9563C29.8993 10.4747 30.1514 8.9338 30.7279 7.50055L30.8421 7.22776C31.456 5.77018 32.4184 4.42119 33.6002 3.36814L33.5811 3.3852C34.772 2.27987 36.199 1.42899 37.689 0.872066L37.7 0.86796C39.3582 0.254984 41.1099 -0.00161002 42.8084 7.59739e-06ZM42.8084 3.52174C41.4518 3.52086 40.1324 3.7237 38.9191 4.1713C37.8806 4.56162 36.9378 5.11531 36.1264 5.82882L35.9467 5.99095C35.1329 6.71942 34.5044 7.60041 34.0773 8.60841L34.0714 8.62103C33.6255 9.64398 33.4173 10.775 33.4182 11.9563C33.4173 13.1485 33.6294 14.2952 34.0773 15.3443L34.1554 15.5185C34.5858 16.4428 35.1946 17.266 35.9584 17.9719C36.8107 18.7357 37.8132 19.3253 38.9188 19.741C39.2376 19.8583 39.5635 19.9594 39.8957 20.0441C40.1905 20.1193 40.4905 20.1814 40.7937 20.2315C41.4501 20.34 42.1244 20.3909 42.8084 20.3909C43.4862 20.3909 44.1537 20.3412 44.8014 20.2338C45.1095 20.1827 45.4131 20.1183 45.7108 20.0406C46.0306 19.9573 46.3439 19.8585 46.6494 19.7435L46.6604 19.7394C47.7774 19.3289 48.7818 18.7443 49.6092 17.9785C50.4274 17.224 51.0683 16.335 51.5029 15.3317L51.5107 15.314C51.9767 14.277 52.1995 13.1411 52.1982 11.9563C52.1995 10.7822 51.9809 9.66233 51.5168 8.65171L51.4977 8.60841C51.0702 7.60041 50.4414 6.71942 49.628 5.99095L49.5913 5.95712C48.7714 5.17586 47.7748 4.58261 46.6604 4.17318L46.6494 4.16909C45.4607 3.72068 44.1547 3.5209 42.8084 3.52174Z" fill="#28492D"/>
<path d="M18.941 0.800781V17.8497L3.46197 0.800781H0V23.1226L3.7141 23.1222V6.5297L19.1216 23.1226H22.6564V0.800781H18.941Z" fill="#28492D"/>
</g>
<defs>
<clipPath id="clip0_858_821">
<rect width="146.595" height="24" fill="white"/>
</clipPath>
</defs>
</svg>
