<svg width="147" height="24" viewBox="0 0 170 27" fill="none" xmlns="http://www.w3.org/2000/svg">
<g clip-path="url(#clip0_dark)">
<path d="M51.6343 10.8398H47.2767L45.8242 13.3906L47.2767 15.9414H51.6343L53.0868 13.3906L51.6343 10.8398Z" fill="#F7D047"/>
<path d="M49.4991 22.957C49.4991 24.2324 49.4991 25.5078 49.4991 26.7832C50.4683 26.7832 51.4496 26.7134 52.4294 26.5534C52.895 26.4773 53.3602 26.3808 53.8217 26.2622C54.3152 26.1354 54.8045 25.9834 55.2859 25.8052L55.2735 25.8097C56.9562 25.2027 58.5941 24.2827 59.9631 23.0342C61.2709 21.8518 62.3623 20.3704 63.0743 18.745L63.0656 18.7643C63.8431 17.0674 64.2026 15.1959 64.1977 13.3916C64.2022 11.6046 63.8502 9.74016 63.0589 8.04985L63.0799 8.0969C62.3823 6.46584 61.2885 4.95602 59.9428 3.7759L59.9835 3.81292C58.625 2.53623 56.9761 1.58668 55.2735 0.973454L55.2859 0.977958C53.4046 0.279675 51.4188 -0.0014296 49.4995 8.65629e-06H49.4991C47.5618 -0.00182112 45.565 0.286321 43.6766 0.97345L43.6646 0.977958C41.9657 1.60272 40.3417 2.55668 38.9866 3.7945L39.0073 3.7759C37.6619 4.95602 36.5681 6.46587 35.8702 8.0969L35.8761 8.08317C35.1238 9.77674 34.7971 11.6209 34.8008 13.3916C34.7969 15.1795 35.1308 17.0314 35.8702 18.7313L35.8761 18.745C36.5881 20.3703 37.6792 21.8518 38.9866 23.0337L39.0073 23.0523C40.3718 24.2621 41.9856 25.1871 43.6646 25.8052L43.6766 25.8097C44.1723 25.9896 44.6767 26.1431 45.1856 26.2709C45.6365 26.3843 46.0912 26.4775 46.5471 26.5516C47.5325 26.712 48.5216 26.7832 49.4991 26.7832C49.4991 25.5078 49.4991 24.2324 49.4991 22.957C48.7131 22.9571 47.9372 22.8997 47.1819 22.7768C46.8329 22.7199 46.488 22.6492 46.1488 22.5639C45.7659 22.4677 45.3905 22.3532 45.0231 22.2199L45.0355 22.2244C43.7548 21.7516 42.5934 21.0787 41.6073 20.2059L41.6283 20.2245C40.6851 19.3689 39.946 18.3593 39.445 17.221L39.4511 17.2347C38.9343 16.0436 38.6902 14.7422 38.6917 13.3916C38.6902 12.0534 38.9298 10.7693 39.445 9.60723L39.4511 9.59351C39.9434 8.45 40.6693 7.44897 41.6073 6.62229L41.6283 6.60369C42.6047 5.71372 43.7579 5.03029 45.0355 4.55875L45.0231 4.56326C46.4203 4.05507 47.939 3.82516 49.4991 3.82616H49.4995C51.0453 3.8252 52.5471 4.05089 53.915 4.55875L53.9274 4.56326C55.2092 5.02677 56.3574 5.6993 57.3022 6.5853L57.3428 6.62229C58.2812 7.44897 59.0067 8.45 59.4994 9.59351L59.5205 9.64056C60.0564 10.7889 60.3084 12.061 60.3069 13.3916C60.3084 14.7343 60.0515 16.0241 59.5141 17.2017L59.5054 17.221C59.0045 18.3593 58.265 19.3689 57.3221 20.2245C56.3687 21.0929 55.2118 21.7553 53.9274 22.2199L53.915 22.2244C53.5645 22.3543 53.2049 22.466 52.8386 22.5602C52.4956 22.6483 52.1462 22.721 51.7915 22.7789C51.0464 22.9007 50.2784 22.9571 49.4991 22.957Z" fill="#231f23"/>
<path d="M72.6289 26.1081V0.636719H86.2041C87.8183 0.636719 89.3002 0.98847 90.65 1.69196C91.9995 2.39546 93.0714 3.35367 93.865 4.56659C94.659 5.77952 95.0561 7.13799 95.0561 8.642C95.0561 10.0733 94.6326 11.3953 93.7856 12.6083C92.9653 13.8212 91.8539 14.7915 90.4514 15.5193C89.0753 16.2471 87.5539 16.6109 85.8866 16.6109H76.9158V26.1081H72.6289ZM91.1262 26.1081L83.108 14.6096L87.5934 13.6999L96.4056 26.1445L91.1262 26.1081ZM76.9158 12.8266H85.966C86.8393 12.8266 87.6197 12.6447 88.308 12.2808C89.0222 11.8927 89.5781 11.3832 89.9749 10.7525C90.3984 10.0975 90.6102 9.38188 90.6102 8.60561C90.6102 7.80511 90.3721 7.08947 89.8956 6.45874C89.4457 5.82805 88.8109 5.33073 87.9902 4.96686C87.1966 4.60299 86.2966 4.42105 85.2913 4.42105H76.9158V12.8266Z" fill="#231f23"/>
<path d="M141.363 26.5271L153.324 0.636719H158.004L169.885 26.5271H165.205L157.604 10.0312C157.471 9.73536 157.284 9.30384 157.044 8.73673C156.831 8.14495 156.591 7.51618 156.324 6.85043C156.057 6.18467 155.804 5.5559 155.564 4.96412C155.324 4.34767 155.137 3.86685 155.004 3.52165L156.084 3.48466C155.898 3.97781 155.684 4.52029 155.444 5.11207C155.231 5.70385 154.991 6.30795 154.724 6.9244C154.484 7.54085 154.244 8.13263 154.004 8.69974C153.764 9.24222 153.551 9.73536 153.364 10.1792L145.804 26.5271H141.363Z" fill="#231f23"/>
<path d="M146.191 23.5067H155.625H165.059L163.756 20.0547H147.358L146.191 23.5067Z" fill="#231f23"/>
<path d="M0 26.1445V0.636719H4.02941L23.3386 21.5167L22.8599 21.8446C22.7269 21.1887 22.6205 20.4842 22.5407 19.7311C22.4609 18.9537 22.3811 18.1521 22.3014 17.3261C22.2481 16.4759 22.195 15.6013 22.1418 14.7024C22.1152 13.7793 22.0886 12.844 22.062 11.8966C22.062 10.9491 22.062 9.98956 22.062 9.01786V0.636719H26.3706V26.1445H22.2615L3.2315 6.02981L3.51077 5.51962C3.59056 6.58852 3.67035 7.56027 3.75014 8.43481C3.82993 9.28508 3.90974 10.0625 3.98951 10.7669C4.06928 11.4715 4.1225 12.1152 4.14909 12.6983C4.20227 13.257 4.24218 13.7793 4.26877 14.2652C4.29536 14.7267 4.30867 15.1519 4.30867 15.5405V26.1445H0Z" fill="#231f23"/>
<path d="M4.32304 4.46484H0V26.1465H4.32304V4.46484Z" fill="#231f23"/>
<path d="M26.3699 0.636719H22.0469V26.1445H26.3699V0.636719Z" fill="#231f23"/>
<path d="M105.051 26.1445V0.636719H109.285L120.472 15.4677L118.634 15.4312L129.94 0.636719H134.015V26.1445H129.7V15.5405C129.7 13.427 129.754 11.4958 129.86 9.74664C129.993 7.97325 130.206 6.19984 130.499 4.42645L131.019 5.84758L120.791 18.8201H118.155L108.127 5.92048L108.566 4.42645C108.859 6.15127 109.059 7.88822 109.166 9.6373C109.299 11.3621 109.365 13.3299 109.365 15.5405V26.1445H105.051Z" fill="#231f23"/>
<path d="M109.374 0.636719H105.051V26.1445H109.374V0.636719Z" fill="#231f23"/>
<path d="M134.014 0.636719H129.691V26.1445H134.014V0.636719Z" fill="#231f23"/>
</g>
<defs>
<clipPath id="clip0_dark">
<rect width="170" height="27" fill="white"/>
</clipPath>
</defs>
</svg>
