<svg width="136.986" height="40" viewBox="0 0 136.986 40" fill="none" xmlns="http://www.w3.org/2000/svg">
<g id="totvs 1" clip-path="url(#clip0_0_4)">
<path id="Vector" d="M31.854 8.19522C31.648 7.43529 31.1541 6.75236 30.4592 6.22241C26.8035 3.46769 22.466 1.40389 17.7404 0.180017C17.2835 0.0600287 16.8105 0.00203451 16.3326 0.00203451C15.8546 0.00203451 15.3827 0.0600287 14.9247 0.180017C10.2002 1.40389 5.85762 3.46769 2.21098 6.22141C1.51505 6.74636 1.0211 7.43329 0.815119 8.19422C0.275497 10.176 0.00146175 12.2207 0.000200907 14.2746L0.000200907 24.8755C0.000200907 26.9153 0.272174 28.9541 0.815119 30.9549C1.0211 31.7169 1.51505 32.3998 2.21098 32.9287C5.86061 35.6835 10.2042 37.7473 14.9247 38.9711C15.3817 39.0911 15.8546 39.1491 16.3326 39.1491C16.8105 39.1491 17.2835 39.0911 17.7404 38.9711C22.466 37.7473 26.8085 35.6835 30.4552 32.9287C31.1501 32.4038 31.645 31.7169 31.85 30.9559C32.394 28.9541 32.6649 26.9153 32.6649 24.8765V14.2746C32.6649 12.2348 32.394 10.196 31.85 8.19522H31.854ZM31.4011 20.264C31.2161 20.9429 30.7841 21.5539 30.1412 22.0388C28.3082 23.4153 26.3407 24.6029 24.2688 25.5835C22.1261 26.5945 19.8936 27.403 17.6004 27.9982C17.1865 28.1063 16.7604 28.1607 16.3326 28.1602C15.8999 28.1602 15.4773 28.1062 15.0647 27.9982C12.7479 27.3983 10.5051 26.5844 8.39736 25.5835C6.28957 24.5826 4.31377 23.3867 2.52295 22.0388C1.88501 21.5549 1.44906 20.9429 1.26307 20.264C1.13941 19.809 1.13941 19.3292 1.26307 18.8741C1.44906 18.1962 1.88101 17.5843 2.52295 17.1003C4.31377 15.7475 6.28957 14.5566 8.39736 13.5557C10.5051 12.5548 12.7469 11.7439 15.0647 11.1399C15.4787 11.0322 15.9048 10.9781 16.3326 10.9789C16.7603 10.9781 17.1864 11.0322 17.6004 11.1399C19.9182 11.7399 22.161 12.5548 24.2688 13.5557C26.3411 14.5362 28.3089 15.7238 30.1422 17.1003C30.7801 17.5843 31.2161 18.1962 31.4021 18.8741C31.525 19.3291 31.525 19.8091 31.4021 20.264M42.075 13.8906C41.2761 13.8906 40.8351 13.4567 40.8351 12.6838V9.75506H57.5514V12.6838C57.5514 13.4527 57.1115 13.8906 56.3116 13.8906H51.558V29.3841H46.8325V13.8906H42.075ZM69.7472 25.1325C70.9031 24.6196 71.731 24.0366 72.7149 23.2757C73.4429 22.7088 73.8138 21.9438 73.8998 21.0669C74.0278 19.8221 74.0318 19.3261 73.8998 18.0812C73.8607 17.6565 73.7355 17.2441 73.5318 16.8693C73.3281 16.4946 73.0501 16.1652 72.7149 15.9014C71.743 15.0945 70.9201 14.5236 69.7472 14.0116C69.3492 13.8416 68.9201 13.7568 68.4874 13.7627C68.0224 13.7627 67.5904 13.8497 67.2275 14.0106C66.0546 14.5236 65.2317 15.0945 64.2598 15.9004C63.925 16.1646 63.6473 16.4941 63.4437 16.8688C63.24 17.2434 63.1145 17.6556 63.0749 18.0802C62.9429 19.3261 62.9469 19.8221 63.0749 21.0669C63.1649 21.9438 63.5278 22.7008 64.2598 23.2757C65.2357 24.0456 66.0666 24.6236 67.2275 25.1325C67.6024 25.2945 68.0224 25.3525 68.4874 25.3525C68.9523 25.3525 69.3673 25.2945 69.7472 25.1325ZM65.4077 29.3471C64.0338 28.8092 62.412 27.9872 61.2431 27.1093C59.5352 25.8355 58.4734 23.8756 58.2334 21.7539C58.0658 20.3042 58.0658 18.84 58.2334 17.3903C58.4734 15.2685 59.5352 13.3077 61.2431 12.0628C62.416 11.1569 64.0298 10.322 65.4087 9.78006C66.3586 9.40309 67.3925 9.12212 68.4914 9.12212C69.5902 9.12212 70.6191 9.40809 71.574 9.78006C72.9659 10.326 74.5707 11.1569 75.7396 12.0628C77.4485 13.3077 78.5094 15.2685 78.7493 17.3903C78.9173 18.9001 78.9173 20.244 78.7493 21.7539C78.5094 23.8756 77.4485 25.8355 75.7396 27.1093C74.5667 27.9862 72.9619 28.8092 71.574 29.3471C70.5911 29.7271 69.5902 30.021 68.4914 30.021C67.3925 30.021 66.3906 29.7311 65.4077 29.3471ZM80.6671 13.8906C79.8682 13.8906 79.4273 13.4567 79.4273 12.6838V9.75406H96.1436V12.6838C96.1436 13.4527 95.7026 13.8906 94.9037 13.8906H90.1512V29.3841H85.4257V13.8906H80.6671ZM105.282 28.6692L100.091 21.9398C99.7162 21.4649 99.5892 21.0429 99.5892 20.456V9.76006H103.022C103.787 9.76006 104.224 10.182 104.224 10.9679V19.5041C104.224 20.091 104.347 20.542 104.726 21.0059L108.187 25.3235L111.492 21.0059C111.842 20.53 111.995 20.096 111.995 19.5041V10.9679C111.995 10.198 112.415 9.76006 113.197 9.76006H116.63V20.456C116.63 21.0429 116.477 21.4769 116.128 21.9568L110.994 28.6742C110.616 29.1781 110.159 29.3891 109.529 29.3891H106.755C106.113 29.3891 105.669 29.1791 105.29 28.6742M119.671 23.0597H123.305C124.153 23.0597 124.293 23.3497 124.532 24.1596C124.87 25.3145 125.862 25.9224 127.89 25.9224H128.969C131.056 25.9224 132.138 25.2775 132.138 23.9866V23.5607C132.138 22.7668 131.451 22.2538 130.097 22.0058L125.5 21.1699C122.215 20.583 120.012 19.0151 120.012 16.1244V14.9945C120.012 11.3719 123.24 9.30411 127.092 9.30411H129.298C133.913 9.30411 136.51 11.7689 136.51 15.6405H132.83C132.101 15.6405 131.887 15.4665 131.735 14.8625C131.459 13.7787 130.685 13.2327 129.035 13.2327H127.779C126.306 13.2327 124.861 13.6427 124.861 14.9785V15.4335C124.861 16.1364 125.487 16.6374 126.776 16.8564L131.579 17.7203C134.777 18.2912 136.996 19.7761 136.996 22.8118V23.9866C136.996 27.9162 133.534 29.868 129.389 29.868H127.404C122.894 29.868 119.683 27.8123 119.683 23.0597" fill="var(--fill-0, #04041C)"/>
</g>
<defs>
<clipPath id="clip0_0_4">
<rect width="136.986" height="40" fill="white"/>
</clipPath>
</defs>
</svg>
