<svg width="32" height="32" viewBox="0 0 32 32" fill="none" xmlns="http://www.w3.org/2000/svg">
<rect width="32" height="32" rx="1.98964" fill="#F0F0EA"/>
<path d="M17.8271 13.7964H14.1453L12.918 15.9915L14.1453 18.1866H17.8271L19.0544 15.9915L17.8271 13.7964Z" fill="#DAAE12"/>
<path d="M15.9926 4.23829C17.646 4.23705 19.3577 4.48287 20.9808 5.09432C22.4326 5.62651 23.8405 6.44757 25.0068 7.55051L25.2221 7.74787C26.2858 8.75215 27.1527 10.0023 27.7185 11.3461L27.7 11.3035C28.3841 12.7884 28.6883 14.4273 28.6842 15.9961C28.6887 17.5801 28.3777 19.2249 27.7057 20.7152L27.5941 20.9641C26.9791 22.2878 26.0832 23.4923 25.0247 24.4647C23.843 25.5598 22.4304 26.3658 20.9812 26.8979C20.5659 27.054 20.1433 27.1873 19.7175 27.2983C19.3195 27.402 18.9189 27.4866 18.5173 27.5531C17.6731 27.6931 16.8273 27.7539 15.9926 27.7539C15.1506 27.754 14.2981 27.6919 13.4487 27.5516C13.0561 27.4867 12.6641 27.4052 12.2754 27.306C11.8349 27.1937 11.3983 27.0586 10.969 26.9004L10.9581 26.8963C9.51014 26.3546 8.11605 25.5435 6.93724 24.4812L6.91843 24.4644C5.78989 23.4276 4.84592 22.1261 4.2302 20.6977L4.22494 20.6853C3.58595 19.1925 3.29737 17.5654 3.30081 15.9961C3.29775 14.5391 3.5457 13.0238 4.11261 11.6143L4.22494 11.3461C4.8286 9.91268 5.77509 8.58608 6.93724 7.55051L6.91843 7.56729C8.08958 6.48031 9.49292 5.64355 10.9581 5.09587L10.969 5.09183C12.5997 4.48903 14.3223 4.2367 15.9926 4.23829ZM15.9926 7.70156C14.6585 7.7007 13.361 7.90016 12.1679 8.34033C11.1466 8.72418 10.2195 9.26867 9.42147 9.97034L9.24478 10.1298C8.44456 10.8462 7.82645 11.7125 7.40641 12.7038L7.40067 12.7162C6.96212 13.7222 6.75736 14.8344 6.75832 15.9961C6.75736 17.1685 6.96595 18.2962 7.40641 19.3279L7.48327 19.4992C7.9065 20.4081 8.50515 21.2177 9.25626 21.9119C10.0944 22.663 11.0803 23.2427 12.1676 23.6516C12.4811 23.7669 12.8016 23.8664 13.1282 23.9497C13.4181 24.0236 13.7131 24.0847 14.0113 24.134C14.6569 24.2406 15.32 24.2907 15.9926 24.2906C16.6592 24.2907 17.3156 24.2418 17.9525 24.1361C18.2555 24.0859 18.554 24.0226 18.8468 23.9463C19.1613 23.8643 19.4694 23.7671 19.7698 23.6541L19.7807 23.65C20.8791 23.2463 21.8668 22.6714 22.6805 21.9184C23.4852 21.1763 24.1154 20.3021 24.5428 19.3155L24.5504 19.2981C25.0087 18.2783 25.2278 17.1612 25.2266 15.9961C25.2278 14.8415 25.0129 13.7402 24.5565 12.7464L24.5377 12.7038C24.1173 11.7125 23.4989 10.8462 22.699 10.1298L22.6629 10.0965C21.8566 9.32822 20.8765 8.74481 19.7807 8.34218L19.7698 8.33817C18.6009 7.8972 17.3165 7.70073 15.9926 7.70156Z" fill="#28492D"/>
</svg>
