<svg width="32" height="32" viewBox="0 0 32 32" fill="none" xmlns="http://www.w3.org/2000/svg">
<rect width="32" height="32" rx="5" fill="#28492D"/>
<path d="M17.8271 13.7964H14.1453L12.918 15.9915L14.1453 18.1866H17.8271L19.0544 15.9915L17.8271 13.7964Z" fill="#DAAE12"/>
<path d="M15.9926 4.23853C17.646 4.23729 19.3577 4.48311 20.9808 5.09456C22.4326 5.62675 23.8405 6.44782 25.0068 7.55075L25.2221 7.74811C26.2858 8.75239 27.1526 10.0025 27.7184 11.3463L27.7 11.3037C28.3841 12.7886 28.6883 14.4275 28.6842 15.9964C28.6887 17.5804 28.3777 19.2251 27.7057 20.7154L27.5941 20.9644C26.9791 22.288 26.0832 23.4925 25.0247 24.4649C23.843 25.56 22.4304 26.3661 20.9812 26.8981C20.5659 27.0543 20.1433 27.1875 19.7175 27.2985C19.3195 27.4022 18.9189 27.4868 18.5173 27.5534C17.6731 27.6934 16.8273 27.7542 15.9926 27.7542C15.1506 27.7542 14.2981 27.6921 13.4487 27.5518C13.0561 27.487 12.6641 27.4055 12.2754 27.3062C11.8349 27.194 11.3983 27.0588 10.969 26.9006L10.9581 26.8966C9.51014 26.3548 8.11605 25.5437 6.93724 24.4814L6.91843 24.4646C5.78989 23.4279 4.84592 22.1263 4.2302 20.698L4.22494 20.6856C3.58595 19.1928 3.29737 17.5656 3.30081 15.9964C3.29775 14.5393 3.5457 13.024 4.11261 11.6146L4.22494 11.3463C4.8286 9.91292 5.77509 8.58632 6.93724 7.55075L6.91843 7.56753C8.08958 6.48055 9.49292 5.64379 10.9581 5.09611L10.969 5.09208C12.5997 4.48928 14.3223 4.23694 15.9926 4.23853ZM15.9926 7.7018C14.6585 7.70094 13.361 7.90041 12.1679 8.34058C11.1466 8.72442 10.2195 9.26892 9.42147 9.97059L9.24478 10.13C8.44456 10.8464 7.82645 11.7128 7.40641 12.704L7.40067 12.7164C6.96212 13.7224 6.75736 14.8347 6.75832 15.9964C6.75736 17.1687 6.96595 18.2964 7.40641 19.3281L7.48327 19.4994C7.9065 20.4083 8.50515 21.2179 9.25626 21.9121C10.0944 22.6632 11.0803 23.243 12.1675 23.6518C12.4811 23.7672 12.8016 23.8666 13.1282 23.9499C13.4181 24.0238 13.7131 24.0849 14.0113 24.1342C14.6569 24.2408 15.32 24.2909 15.9926 24.2909C16.6592 24.2909 17.3156 24.242 17.9525 24.1364C18.2555 24.0862 18.554 24.0228 18.8468 23.9465C19.1613 23.8645 19.4694 23.7673 19.7698 23.6543L19.7807 23.6503C20.8791 23.2466 21.8668 22.6717 22.6805 21.9186C23.4851 21.1766 24.1154 20.3023 24.5428 19.3157L24.5504 19.2983C25.0087 18.2785 25.2278 17.1615 25.2266 15.9964C25.2278 14.8417 25.0129 13.7405 24.5565 12.7466L24.5377 12.704C24.1173 11.7128 23.4989 10.8464 22.699 10.13L22.6629 10.0968C21.8566 9.32846 20.8765 8.74506 19.7807 8.34243L19.7698 8.33841C18.6009 7.89744 17.3165 7.70097 15.9926 7.7018Z" fill="white"/>
</svg>
