<svg width="16" height="16" viewBox="0 0 16 16" fill="none" xmlns="http://www.w3.org/2000/svg">
<g id="Frame">
<path id="Vector" d="M14.354 11.8538L12.354 13.8538C12.3076 13.9002 12.2524 13.9371 12.1917 13.9623C12.131 13.9874 12.066 14.0004 12.0003 14.0004C11.9346 14.0004 11.8695 13.9874 11.8088 13.9623C11.7481 13.9371 11.693 13.9002 11.6465 13.8538L9.64653 11.8538C9.55271 11.7599 9.5 11.6327 9.5 11.5C9.5 11.3673 9.55271 11.2401 9.64653 11.1462C9.74035 11.0524 9.8676 10.9997 10.0003 10.9997C10.133 10.9997 10.2602 11.0524 10.354 11.1462L11.5003 12.2931V8.70687L8.00028 5.20687L4.50028 8.70687V12.2931L5.64653 11.1462C5.74035 11.0524 5.8676 10.9997 6.00028 10.9997C6.13296 10.9997 6.26021 11.0524 6.35403 11.1462C6.44785 11.2401 6.50056 11.3673 6.50056 11.5C6.50056 11.6327 6.44785 11.7599 6.35403 11.8538L4.35403 13.8538C4.30759 13.9002 4.25245 13.9371 4.19175 13.9623C4.13105 13.9874 4.06599 14.0004 4.00028 14.0004C3.93457 14.0004 3.86951 13.9874 3.80881 13.9623C3.74811 13.9371 3.69296 13.9002 3.64653 13.8538L1.64653 11.8538C1.60007 11.8073 1.56322 11.7521 1.53808 11.6914C1.51294 11.6308 1.5 11.5657 1.5 11.5C1.5 11.4343 1.51294 11.3692 1.53808 11.3086C1.56322 11.2479 1.60007 11.1927 1.64653 11.1462C1.74035 11.0524 1.8676 10.9997 2.00028 10.9997C2.06598 10.9997 2.13103 11.0127 2.19173 11.0378C2.25242 11.0629 2.30757 11.0998 2.35403 11.1462L3.50028 12.2931V8.5C3.50023 8.43432 3.51312 8.36927 3.53821 8.30857C3.5633 8.24788 3.60011 8.19272 3.64653 8.14625L7.50028 4.29313V1.5C7.50028 1.36739 7.55296 1.24021 7.64672 1.14645C7.74049 1.05268 7.86767 1 8.00028 1C8.13289 1 8.26006 1.05268 8.35383 1.14645C8.4476 1.24021 8.50028 1.36739 8.50028 1.5V4.29313L12.354 8.14625C12.4004 8.19272 12.4373 8.24788 12.4623 8.30857C12.4874 8.36927 12.5003 8.43432 12.5003 8.5V12.2931L13.6465 11.1462C13.7403 11.0524 13.8676 10.9997 14.0003 10.9997C14.133 10.9997 14.2602 11.0524 14.354 11.1462C14.4478 11.2401 14.5006 11.3673 14.5006 11.5C14.5006 11.6327 14.4478 11.7599 14.354 11.8538Z" fill="#28492D"/>
</g>
</svg>
