<svg width="21.33" height="21.33" viewBox="0 0 21.33 21.33" fill="none" xmlns="http://www.w3.org/2000/svg">
<g id="Frame">
<path id="Vector" d="M17.3297 3.33285H3.99844C3.64487 3.33285 3.30579 3.47331 3.05578 3.72331C2.80577 3.97332 2.66531 4.31241 2.66531 4.66598V9.33191C2.66531 13.7246 4.79165 16.3866 6.57553 17.8464C8.4969 19.4178 10.4083 19.9511 10.4916 19.9736C10.6062 20.0048 10.727 20.0048 10.8415 19.9736C10.9249 19.9511 12.8337 19.4178 14.7576 17.8464C16.5365 16.3866 18.6628 13.7246 18.6628 9.33191V4.66598C18.6628 4.31241 18.5224 3.97332 18.2723 3.72331C18.0223 3.47331 17.6833 3.33285 17.3297 3.33285ZM17.3297 9.33191C17.3297 12.4206 16.1915 14.9277 13.9469 16.7824C12.9698 17.5871 11.8585 18.2132 10.6641 18.6321C9.48525 18.2205 8.38771 17.6055 7.42124 16.8149C5.14992 14.9569 3.99844 12.4398 3.99844 9.33191V4.66598H17.3297V9.33191ZM6.85966 11.8032C6.73458 11.6781 6.66432 11.5085 6.66432 11.3316C6.66432 11.1547 6.73458 10.9851 6.85966 10.86C6.98473 10.7349 7.15437 10.6647 7.33125 10.6647C7.50813 10.6647 7.67777 10.7349 7.80284 10.86L9.33094 12.3889L13.5253 8.19376C13.5872 8.13183 13.6607 8.0827 13.7417 8.04919C13.8226 8.01567 13.9093 7.99842 13.9969 7.99842C14.0845 7.99842 14.1712 8.01567 14.2521 8.04919C14.333 8.0827 14.4065 8.13183 14.4685 8.19376C14.5304 8.25569 14.5795 8.32921 14.613 8.41013C14.6466 8.49104 14.6638 8.57777 14.6638 8.66535C14.6638 8.75293 14.6466 8.83966 14.613 8.92058C14.5795 9.00149 14.5304 9.07501 14.4685 9.13694L9.80253 13.8029C9.74063 13.8649 9.66711 13.914 9.58619 13.9476C9.50527 13.9811 9.41853 13.9984 9.33094 13.9984C9.24334 13.9984 9.1566 13.9811 9.07568 13.9476C8.99476 13.914 8.92125 13.8649 8.85934 13.8029L6.85966 11.8032Z" fill="#28492D"/>
</g>
</svg>
