<svg width="21.33" height="21.33" viewBox="0 0 21.33 21.33" fill="none" xmlns="http://www.w3.org/2000/svg">
<g id="Frame">
<path id="Vector" d="M19.9963 10.6651V15.9976C19.9963 16.1744 19.9261 16.3439 19.8011 16.4689C19.6761 16.5939 19.5065 16.6641 19.3297 16.6641H13.9972C13.8205 16.6641 13.6509 16.5939 13.5259 16.4689C13.4009 16.3439 13.3307 16.1744 13.3307 15.9976C13.3307 15.8208 13.4009 15.6513 13.5259 15.5263C13.6509 15.4012 13.8205 15.331 13.9972 15.331H17.7208L11.331 8.94119L8.46978 11.8032C8.40787 11.8652 8.33436 11.9144 8.25344 11.9479C8.17252 11.9815 8.08578 11.9987 7.99818 11.9987C7.91059 11.9987 7.82385 11.9815 7.74293 11.9479C7.66201 11.9144 7.5885 11.8652 7.52659 11.8032L1.52753 5.80418C1.40245 5.6791 1.33219 5.50947 1.33219 5.33258C1.33219 5.1557 1.40245 4.98607 1.52753 4.86099C1.6526 4.73592 1.82224 4.66565 1.99912 4.66565C2.176 4.66565 2.34564 4.73592 2.47071 4.86099L7.99818 10.3893L10.8594 7.52724C10.9213 7.46527 10.9948 7.4161 11.0757 7.38256C11.1567 7.34901 11.2434 7.33175 11.331 7.33175C11.4186 7.33175 11.5053 7.34901 11.5862 7.38256C11.6672 7.4161 11.7407 7.46527 11.8026 7.52724L18.6632 14.3887V10.6651C18.6632 10.4883 18.7334 10.3188 18.8584 10.1938C18.9834 10.0687 19.153 9.99852 19.3297 9.99852C19.5065 9.99852 19.6761 10.0687 19.8011 10.1938C19.9261 10.3188 19.9963 10.4883 19.9963 10.6651Z" fill="#28492D"/>
</g>
</svg>
