<svg width="21.33" height="21.33" viewBox="0 0 21.33 21.33" fill="none" xmlns="http://www.w3.org/2000/svg">
<g id="Frame">
<path id="Vector" d="M18.6628 5.3325C18.6626 4.83388 18.5225 4.34532 18.2585 3.9223C17.9946 3.49929 17.6172 3.15877 17.1695 2.93943C16.7217 2.72008 16.2214 2.6307 15.7253 2.68143C15.2293 2.73215 14.7574 2.92096 14.3633 3.2264C13.9692 3.53184 13.6686 3.94168 13.4957 4.40937C13.3228 4.87705 13.2846 5.38385 13.3852 5.8722C13.4859 6.36055 13.7215 6.81089 14.0653 7.17206C14.4091 7.53323 14.8472 7.79077 15.33 7.91543V9.33187C15.33 9.50866 15.2598 9.6782 15.1348 9.8032C15.0098 9.92821 14.8402 9.99844 14.6634 9.99844H6.66469C6.48791 9.99844 6.31837 9.92821 6.19336 9.8032C6.06836 9.6782 5.99813 9.50866 5.99813 9.33187V7.91543C6.62647 7.75319 7.17407 7.36736 7.53829 6.83026C7.90251 6.29316 8.05834 5.64166 7.97657 4.99788C7.8948 4.35411 7.58104 3.76225 7.09412 3.33326C6.60719 2.90427 5.98052 2.66759 5.33157 2.66759C4.68262 2.66759 4.05595 2.90427 3.56902 3.33326C3.08209 3.76225 2.76834 4.35411 2.68657 4.99788C2.6048 5.64166 2.76063 6.29316 3.12485 6.83026C3.48906 7.36736 4.03667 7.75319 4.66501 7.91543V9.33187C4.66501 9.86222 4.87569 10.3709 5.2507 10.7459C5.62572 11.1209 6.13434 11.3316 6.66469 11.3316H9.99751V13.4146C9.36917 13.5768 8.82156 13.9626 8.45735 14.4997C8.09313 15.0368 7.9373 15.6883 8.01907 16.3321C8.10084 16.9759 8.41459 17.5677 8.90152 17.9967C9.38845 18.4257 10.0151 18.6624 10.6641 18.6624C11.313 18.6624 11.9397 18.4257 12.4266 17.9967C12.9135 17.5677 13.2273 16.9759 13.3091 16.3321C13.3908 15.6883 13.235 15.0368 12.8708 14.4997C12.5066 13.9626 11.959 13.5768 11.3306 13.4146V11.3316H14.6634C15.1938 11.3316 15.7024 11.1209 16.0774 10.7459C16.4525 10.3709 16.6631 9.86222 16.6631 9.33187V7.91543C17.2353 7.76682 17.7419 7.43264 18.1038 6.96524C18.4657 6.49784 18.6623 5.92361 18.6628 5.3325ZM3.99844 5.3325C3.99844 5.06883 4.07663 4.81108 4.22312 4.59185C4.3696 4.37262 4.57781 4.20175 4.8214 4.10085C5.065 3.99995 5.33305 3.97355 5.59165 4.02499C5.85025 4.07643 6.08779 4.2034 6.27423 4.38984C6.46067 4.57628 6.58764 4.81382 6.63908 5.07242C6.69052 5.33102 6.66412 5.59907 6.56322 5.84266C6.46231 6.08626 6.29144 6.29447 6.07221 6.44095C5.85298 6.58744 5.59524 6.66562 5.33157 6.66562C4.978 6.66562 4.63892 6.52517 4.38891 6.27516C4.1389 6.02515 3.99844 5.68606 3.99844 5.3325ZM11.9972 15.9975C11.9972 16.2612 11.919 16.5189 11.7725 16.7381C11.626 16.9574 11.4178 17.1282 11.1742 17.2291C10.9306 17.33 10.6626 17.3564 10.404 17.305C10.1454 17.2536 9.90785 17.1266 9.72141 16.9402C9.53497 16.7537 9.408 16.5162 9.35656 16.2576C9.30512 15.999 9.33152 15.7309 9.43242 15.4873C9.53332 15.2437 9.70419 15.0355 9.92342 14.889C10.1427 14.7426 10.4004 14.6644 10.6641 14.6644C11.0176 14.6644 11.3567 14.8048 11.6067 15.0548C11.8567 15.3048 11.9972 15.6439 11.9972 15.9975ZM15.9966 6.66562C15.7329 6.66562 15.4752 6.58744 15.2559 6.44095C15.0367 6.29447 14.8658 6.08626 14.7649 5.84266C14.664 5.59907 14.6376 5.33102 14.6891 5.07242C14.7405 4.81382 14.8675 4.57628 15.0539 4.38984C15.2403 4.2034 15.4779 4.07643 15.7365 4.02499C15.9951 3.97355 16.2631 3.99995 16.5067 4.10085C16.7503 4.20175 16.9585 4.37262 17.105 4.59185C17.2515 4.81108 17.3297 5.06883 17.3297 5.3325C17.3297 5.68606 17.1892 6.02515 16.9392 6.27516C16.6892 6.52517 16.3501 6.66562 15.9966 6.66562Z" fill="#28492D"/>
</g>
</svg>
