<svg width="16" height="16" viewBox="0 0 16 16" fill="none" xmlns="http://www.w3.org/2000/svg">
<g id="Frame">
<path id="Vector" d="M7.14604 9.64626L13.146 3.64626C13.1925 3.5998 13.2476 3.56295 13.3083 3.53781C13.369 3.51267 13.4341 3.49973 13.4998 3.49973C13.5655 3.49973 13.6305 3.51267 13.6912 3.53781C13.7519 3.56295 13.8071 3.5998 13.8535 3.64626C13.9 3.69271 13.9368 3.74786 13.962 3.80856C13.9871 3.86926 14.0001 3.93431 14.0001 4.00001C14.0001 4.0657 13.9871 4.13076 13.962 4.19146C13.9368 4.25215 13.9 4.3073 13.8535 4.35376L7.85354 10.3538C7.80709 10.4002 7.75194 10.4371 7.69124 10.4622C7.63054 10.4873 7.56549 10.5003 7.49979 10.5003C7.43409 10.5003 7.36904 10.4873 7.30834 10.4622C7.24765 10.4371 7.1925 10.4002 7.14604 10.3538C7.09959 10.3073 7.06274 10.2522 7.03759 10.1915C7.01245 10.1308 6.99951 10.0657 6.99951 10C6.99951 9.93431 7.01245 9.86926 7.03759 9.80856C7.06274 9.74786 7.09959 9.69271 7.14604 9.64626ZM7.99979 5.50001C8.43411 5.49946 8.86561 5.56976 9.27729 5.70813C9.3398 5.73029 9.40609 5.7398 9.4723 5.73609C9.53851 5.73239 9.60333 5.71555 9.66297 5.68656C9.72261 5.65756 9.77589 5.61699 9.81971 5.56721C9.86352 5.51743 9.89699 5.45942 9.91818 5.39658C9.93936 5.33374 9.94783 5.26731 9.94309 5.20116C9.93836 5.13501 9.92051 5.07047 9.89059 5.01128C9.86067 4.9521 9.81927 4.89946 9.76881 4.85643C9.71835 4.8134 9.65983 4.78083 9.59667 4.76063C8.79987 4.49201 7.94819 4.42868 7.12043 4.57649C6.29266 4.7243 5.51554 5.07849 4.86096 5.60628C4.20637 6.13407 3.69547 6.81842 3.3755 7.59603C3.05554 8.37363 2.93685 9.21937 3.03042 10.055C3.04394 10.1772 3.10203 10.2902 3.19357 10.3723C3.28512 10.4544 3.4037 10.4998 3.52667 10.5C3.54479 10.5 3.56354 10.5 3.58229 10.4969C3.71406 10.4823 3.83463 10.4159 3.9175 10.3124C4.00036 10.2089 4.03873 10.0768 4.02417 9.94501C4.00789 9.79723 3.99976 9.64868 3.99979 9.50001C4.00095 8.4395 4.42275 7.42275 5.17264 6.67286C5.92254 5.92296 6.93928 5.50117 7.99979 5.50001ZM14.2335 6.31251C14.2036 6.25407 14.1624 6.2021 14.1124 6.15958C14.0623 6.11705 14.0044 6.0848 13.9419 6.06466C13.8794 6.04452 13.8135 6.03689 13.7481 6.04221C13.6826 6.04752 13.6189 6.06567 13.5604 6.09563C13.502 6.12559 13.45 6.16676 13.4075 6.21681C13.365 6.26685 13.3327 6.32477 13.3126 6.38728C13.2924 6.44978 13.2848 6.51564 13.2901 6.5811C13.2954 6.64655 13.3136 6.71032 13.3435 6.76876C13.7135 7.49518 13.9319 8.2892 13.9856 9.10261C14.0393 9.91602 13.9272 10.7319 13.656 11.5006L2.33729 11.4963C2.02149 10.591 1.92666 9.62342 2.06069 8.6741C2.19472 7.72478 2.55373 6.82125 3.1078 6.03883C3.66186 5.25641 4.39493 4.61776 5.2459 4.17613C6.09686 3.73451 7.04106 3.50269 7.99979 3.50001H8.05479C8.98599 3.50586 9.90276 3.73067 10.731 4.15626C10.7896 4.18851 10.8541 4.20867 10.9206 4.21556C10.9872 4.22245 11.0544 4.21591 11.1184 4.19635C11.1823 4.17678 11.2417 4.14459 11.293 4.10166C11.3443 4.05873 11.3865 4.00595 11.417 3.94644C11.4475 3.88693 11.4658 3.82189 11.4708 3.75519C11.4757 3.68849 11.4672 3.62147 11.4458 3.5581C11.4244 3.49474 11.3905 3.43632 11.3461 3.38629C11.3017 3.33627 11.2477 3.29567 11.1873 3.26688C9.94039 2.62821 8.53054 2.37837 7.1401 2.54969C5.74966 2.721 4.44262 3.30559 3.38804 4.22782C2.33346 5.15006 1.57986 6.36752 1.22473 7.72271C0.869602 9.0779 0.929279 10.5085 1.39604 11.8294C1.46499 12.0251 1.59286 12.1946 1.76208 12.3147C1.93129 12.4348 2.13355 12.4995 2.34104 12.5H13.6579C13.8653 12.5001 14.0676 12.4358 14.2368 12.3159C14.406 12.1959 14.5337 12.0264 14.6023 11.8306C14.9176 10.9337 15.0476 9.98206 14.9842 9.03342C14.9208 8.08478 14.6654 7.15889 14.2335 6.31188V6.31251Z" fill="#28492D"/>
</g>
</svg>
